<mxfile host="app.diagrams.net" agent="Mozilla/5.0 (X11; Linux x86_64; rv:123.0) Gecko/20100101 Firefox/123.0" version="26.0.5">
  <diagram name="PÃ¡gina-1" id="wPhGtGbeAKfyAv3sYR_j">
    <mxGraphModel dx="1687" dy="882" grid="1" gridSize="10" guides="1" tooltips="1" connect="1" arrows="1" fold="1" page="1" pageScale="1" pageWidth="827" pageHeight="1169" math="0" shadow="0">
      <root>
        <mxCell id="0" />
        <mxCell id="1" parent="0" />
        <mxCell id="eUxsK-XAadwJ9Y3B5R2E-4" value="Package" style="shape=folder;fontStyle=1;tabWidth=110;tabHeight=30;tabPosition=left;html=1;boundedLbl=1;labelInHeader=1;container=1;collapsible=0;whiteSpace=wrap;fillColor=#f5f5f5;fontColor=#333333;strokeColor=#666666;" parent="1" vertex="1">
          <mxGeometry x="30" y="50" width="750" height="940" as="geometry" />
        </mxCell>
        <mxCell id="eUxsK-XAadwJ9Y3B5R2E-5" value="" style="html=1;strokeColor=none;resizeWidth=1;resizeHeight=1;fillColor=none;part=1;connectable=0;allowArrows=0;deletable=0;whiteSpace=wrap;" parent="eUxsK-XAadwJ9Y3B5R2E-4" vertex="1">
          <mxGeometry width="750" height="658" relative="1" as="geometry">
            <mxPoint y="30" as="offset" />
          </mxGeometry>
        </mxCell>
        <mxCell id="eUxsK-XAadwJ9Y3B5R2E-6" value="Package" style="shape=folder;fontStyle=1;tabWidth=110;tabHeight=30;tabPosition=left;html=1;boundedLbl=1;labelInHeader=1;container=1;collapsible=0;whiteSpace=wrap;fillColor=#dae8fc;strokeColor=#6c8ebf;" parent="eUxsK-XAadwJ9Y3B5R2E-4" vertex="1">
          <mxGeometry x="225.5" y="79.99980392156863" width="260" height="147.45098039215685" as="geometry" />
        </mxCell>
        <mxCell id="eUxsK-XAadwJ9Y3B5R2E-7" value="Text" style="html=1;strokeColor=none;resizeWidth=1;resizeHeight=1;fillColor=none;part=1;connectable=0;allowArrows=0;deletable=0;whiteSpace=wrap;" parent="eUxsK-XAadwJ9Y3B5R2E-6" vertex="1">
          <mxGeometry width="260" height="103.21568627450979" relative="1" as="geometry">
            <mxPoint y="30" as="offset" />
          </mxGeometry>
        </mxCell>
        <mxCell id="gtCwzmnFEEMJjQTulvzy-5" value="Package" style="shape=folder;fontStyle=1;tabWidth=110;tabHeight=30;tabPosition=left;html=1;boundedLbl=1;labelInHeader=1;container=1;collapsible=0;whiteSpace=wrap;fillColor=#d5e8d4;strokeColor=#82b366;" vertex="1" parent="eUxsK-XAadwJ9Y3B5R2E-4">
          <mxGeometry x="225.5" y="679.9998039215686" width="260" height="147.45098039215685" as="geometry" />
        </mxCell>
        <mxCell id="gtCwzmnFEEMJjQTulvzy-6" value="Text" style="html=1;strokeColor=none;resizeWidth=1;resizeHeight=1;fillColor=none;part=1;connectable=0;allowArrows=0;deletable=0;whiteSpace=wrap;" vertex="1" parent="gtCwzmnFEEMJjQTulvzy-5">
          <mxGeometry width="260" height="103.21568627450979" relative="1" as="geometry">
            <mxPoint y="30" as="offset" />
          </mxGeometry>
        </mxCell>
        <mxCell id="gtCwzmnFEEMJjQTulvzy-3" value="Package" style="shape=folder;fontStyle=1;tabWidth=110;tabHeight=30;tabPosition=left;html=1;boundedLbl=1;labelInHeader=1;container=1;collapsible=0;whiteSpace=wrap;fillColor=#f8cecc;strokeColor=#b85450;" vertex="1" parent="eUxsK-XAadwJ9Y3B5R2E-4">
          <mxGeometry x="225.5" y="479.9998039215686" width="260" height="147.45098039215685" as="geometry" />
        </mxCell>
        <mxCell id="gtCwzmnFEEMJjQTulvzy-4" value="Text" style="html=1;strokeColor=none;resizeWidth=1;resizeHeight=1;fillColor=none;part=1;connectable=0;allowArrows=0;deletable=0;whiteSpace=wrap;" vertex="1" parent="gtCwzmnFEEMJjQTulvzy-3">
          <mxGeometry width="260" height="103.21568627450979" relative="1" as="geometry">
            <mxPoint y="30" as="offset" />
          </mxGeometry>
        </mxCell>
        <mxCell id="gtCwzmnFEEMJjQTulvzy-1" value="Package" style="shape=folder;fontStyle=1;tabWidth=110;tabHeight=30;tabPosition=left;html=1;boundedLbl=1;labelInHeader=1;container=1;collapsible=0;whiteSpace=wrap;fillColor=#fff2cc;strokeColor=#d6b656;" vertex="1" parent="eUxsK-XAadwJ9Y3B5R2E-4">
          <mxGeometry x="225.5" y="279.9998039215686" width="260" height="147.45098039215685" as="geometry" />
        </mxCell>
        <mxCell id="gtCwzmnFEEMJjQTulvzy-2" value="Text" style="html=1;strokeColor=none;resizeWidth=1;resizeHeight=1;fillColor=none;part=1;connectable=0;allowArrows=0;deletable=0;whiteSpace=wrap;" vertex="1" parent="gtCwzmnFEEMJjQTulvzy-1">
          <mxGeometry width="260" height="103.21568627450979" relative="1" as="geometry">
            <mxPoint y="30" as="offset" />
          </mxGeometry>
        </mxCell>
        <mxCell id="gtCwzmnFEEMJjQTulvzy-7" value="" style="endArrow=open;startArrow=none;endFill=0;startFill=0;endSize=8;html=1;verticalAlign=bottom;dashed=1;labelBackgroundColor=none;rounded=0;exitX=0.59;exitY=1.004;exitDx=0;exitDy=0;exitPerimeter=0;entryX=0.59;entryY=0.198;entryDx=0;entryDy=0;entryPerimeter=0;" edge="1" parent="eUxsK-XAadwJ9Y3B5R2E-4" source="eUxsK-XAadwJ9Y3B5R2E-6" target="gtCwzmnFEEMJjQTulvzy-1">
          <mxGeometry width="160" relative="1" as="geometry">
            <mxPoint x="370" y="260" as="sourcePoint" />
            <mxPoint x="530" y="260" as="targetPoint" />
          </mxGeometry>
        </mxCell>
        <mxCell id="gtCwzmnFEEMJjQTulvzy-10" value="" style="endArrow=open;startArrow=none;endFill=0;startFill=0;endSize=8;html=1;verticalAlign=bottom;dashed=1;labelBackgroundColor=none;rounded=0;exitX=0.59;exitY=1.004;exitDx=0;exitDy=0;exitPerimeter=0;entryX=0.572;entryY=0.23;entryDx=0;entryDy=0;entryPerimeter=0;" edge="1" parent="eUxsK-XAadwJ9Y3B5R2E-4" target="gtCwzmnFEEMJjQTulvzy-5">
          <mxGeometry width="160" relative="1" as="geometry">
            <mxPoint x="374.41" y="627.45" as="sourcePoint" />
            <mxPoint x="374.41" y="708.45" as="targetPoint" />
          </mxGeometry>
        </mxCell>
        <mxCell id="gtCwzmnFEEMJjQTulvzy-11" value="" style="endArrow=open;startArrow=none;endFill=0;startFill=0;endSize=8;html=1;verticalAlign=bottom;dashed=1;labelBackgroundColor=none;rounded=0;exitX=0.59;exitY=1.004;exitDx=0;exitDy=0;exitPerimeter=0;entryX=0.579;entryY=0.19;entryDx=0;entryDy=0;entryPerimeter=0;" edge="1" parent="eUxsK-XAadwJ9Y3B5R2E-4" target="gtCwzmnFEEMJjQTulvzy-3">
          <mxGeometry width="160" relative="1" as="geometry">
            <mxPoint x="374.41" y="427.45" as="sourcePoint" />
            <mxPoint x="374.41" y="508.45000000000005" as="targetPoint" />
          </mxGeometry>
        </mxCell>
      </root>
    </mxGraphModel>
  </diagram>
</mxfile>
